<svg width="443" height="452" viewBox="0 0 443 452" fill="none" xmlns="http://www.w3.org/2000/svg">
<mask id="mask0_2_0" style="mask-type:alpha" maskUnits="userSpaceOnUse" x="24" y="24" width="395" height="404">
<ellipse cx="221.363" cy="225.681" rx="201.738" ry="196.722" transform="rotate(82.5029 221.363 225.681)" fill="black"/>
</mask>
<g mask="url(#mask0_2_0)">
<rect x="388.49" y="-80.1106" width="562.743" height="411.194" transform="rotate(82.5029 388.49 -80.1106)" fill="#C2A6F1"/>
<rect x="388.49" y="-80.1106" width="562.743" height="411.194" transform="rotate(82.5029 388.49 -80.1106)" fill="url(#paint0_radial_2_0)"/>
<rect x="388.49" y="-80.1106" width="562.743" height="411.194" transform="rotate(82.5029 388.49 -80.1106)" fill="url(#paint1_linear_2_0)"/>
<rect x="388.49" y="-80.1106" width="562.743" height="411.194" transform="rotate(82.5029 388.49 -80.1106)" fill="url(#paint2_linear_2_0)"/>
<rect x="388.49" y="-80.1106" width="562.743" height="411.194" transform="rotate(82.5029 388.49 -80.1106)" fill="url(#paint3_linear_2_0)"/>
<rect x="388.49" y="-80.1106" width="562.743" height="411.194" transform="rotate(82.5029 388.49 -80.1106)" fill="url(#paint4_radial_2_0)"/>
<rect x="388.49" y="-80.1106" width="562.743" height="411.194" transform="rotate(82.5029 388.49 -80.1106)" fill="url(#paint5_radial_2_0)"/>
<rect x="388.49" y="-80.1106" width="562.743" height="411.194" transform="rotate(82.5029 388.49 -80.1106)" fill="url(#paint6_radial_2_0)"/>
<rect x="388.49" y="-80.1106" width="562.743" height="411.194" transform="rotate(82.5029 388.49 -80.1106)" fill="url(#paint7_linear_2_0)"/>
</g>
<defs>
<radialGradient id="paint0_radial_2_0" cx="0" cy="0" r="1" gradientUnits="userSpaceOnUse" gradientTransform="translate(899.179 84.9844) rotate(111.044) scale(429.007 252.131)">
<stop stop-color="#FFFDB1"/>
<stop offset="0.344597" stop-color="#FEE4BF"/>
<stop offset="0.695017" stop-color="#F0BDD0"/>
<stop offset="1" stop-color="#FF8126" stop-opacity="0"/>
</radialGradient>
<linearGradient id="paint1_linear_2_0" x1="708.199" y1="-107.884" x2="808.152" y2="1.0546" gradientUnits="userSpaceOnUse">
<stop stop-color="#C0A9F0" stop-opacity="0"/>
<stop offset="0.456382" stop-color="#C0A9F0"/>
<stop offset="1" stop-color="#C0A9F0" stop-opacity="0"/>
</linearGradient>
<linearGradient id="paint2_linear_2_0" x1="991.329" y1="-176.545" x2="891.216" y2="8.98977" gradientUnits="userSpaceOnUse">
<stop stop-color="#C0A9F0" stop-opacity="0"/>
<stop offset="0.461891" stop-color="#C0A9F0"/>
<stop offset="1" stop-color="#C0A9F0" stop-opacity="0"/>
</linearGradient>
<linearGradient id="paint3_linear_2_0" x1="531.638" y1="-15.307" x2="639.43" y2="130.125" gradientUnits="userSpaceOnUse">
<stop stop-color="#CDF9E8"/>
<stop offset="1" stop-color="#CDF9E8" stop-opacity="0"/>
</linearGradient>
<radialGradient id="paint4_radial_2_0" cx="0" cy="0" r="1" gradientUnits="userSpaceOnUse" gradientTransform="translate(644.89 103.5) rotate(-125.304) scale(137.543 314.058)">
<stop stop-color="#CBADEB"/>
<stop offset="1" stop-color="#C2A6F1" stop-opacity="0"/>
</radialGradient>
<radialGradient id="paint5_radial_2_0" cx="0" cy="0" r="1" gradientUnits="userSpaceOnUse" gradientTransform="translate(590.374 331.084) rotate(-133.884) scale(204.979 289.909)">
<stop stop-color="#DC8DDC"/>
<stop offset="1" stop-color="#DC8DDC" stop-opacity="0"/>
</radialGradient>
<radialGradient id="paint6_radial_2_0" cx="0" cy="0" r="1" gradientUnits="userSpaceOnUse" gradientTransform="translate(637.504 277.467) rotate(-145.245) scale(188.786 335.593)">
<stop stop-color="#DC8DDC"/>
<stop offset="1" stop-color="#DC8DDC" stop-opacity="0"/>
</radialGradient>
<linearGradient id="paint7_linear_2_0" x1="388.49" y1="-80.1106" x2="483.256" y2="5.24716" gradientUnits="userSpaceOnUse">
<stop stop-color="#EBF3D0"/>
<stop offset="1" stop-color="#EBF3D0" stop-opacity="0"/>
</linearGradient>
</defs>
</svg>
