<?xml version="1.0" encoding="utf-8"?>
<svg viewBox="0 0 400 400" xmlns="http://www.w3.org/2000/svg">
  <g id="svgg">
    <path id="path0" d="M214.400 26.456 C 142.952 29.068,81.125 70.970,56.488 133.478 C 37.039 182.823,40.749 242.660,65.982 286.617 C 71.677 296.536,73.459 298.752,75.278 298.175 C 76.107 297.912,98.181 276.794,104.675 270.052 C 108.994 265.568,108.965 265.837,105.829 259.203 C 70.422 184.283,107.586 97.681,184.800 75.178 C 230.975 61.721,278.396 71.348,312.983 101.202 C 318.643 106.088,319.244 106.213,319.706 102.600 C 320.123 99.342,319.889 52.383,319.452 51.486 C 317.769 48.035,295.690 38.190,278.600 33.269 C 263.900 29.037,234.476 25.244,222.908 26.090 C 222.078 26.150,218.250 26.315,214.400 26.456 M121.505 293.878 C 119.467 295.791,115.545 299.571,112.789 302.276 C 110.032 304.982,104.676 310.212,100.886 313.898 C 92.478 322.076,92.546 321.879,96.700 325.952 C 112.292 341.241,139.230 357.307,160.600 364.060 C 168.148 366.446,179.352 369.434,183.400 370.142 C 184.060 370.257,186.580 370.709,189.000 371.145 C 217.132 376.219,252.664 374.400,279.200 366.527 C 293.878 362.173,313.617 353.578,318.121 349.581 L 319.800 348.092 319.800 321.860 C 319.800 290.238,320.237 292.083,314.082 297.691 C 286.825 322.524,250.516 333.924,210.930 330.078 C 180.588 327.130,153.874 315.204,131.953 294.822 C 126.035 289.319,126.333 289.346,121.505 293.878 " stroke="none" fill="#4d5ecf" fill-rule="evenodd"/>
    <path id="path1" d="M219.000 115.069 C 218.340 115.150,215.460 115.502,212.600 115.850 C 209.414 116.237,205.618 117.025,202.800 117.884 C 200.270 118.654,196.944 119.638,195.409 120.069 C 193.874 120.500,192.434 121.006,192.209 121.192 C 191.984 121.378,190.360 122.164,188.600 122.939 C 162.194 134.559,143.331 159.401,137.022 190.866 C 134.720 202.347,137.377 228.340,141.207 231.807 C 142.648 233.111,144.152 231.842,164.182 212.415 C 192.448 185.000,192.794 184.668,193.949 183.903 C 196.563 182.168,197.411 182.823,211.687 197.600 C 226.455 212.885,226.795 213.200,228.555 213.200 C 230.290 213.200,231.922 211.899,239.600 204.391 C 242.790 201.272,247.717 196.493,250.549 193.771 C 256.415 188.133,257.600 186.687,257.600 185.166 C 257.600 184.035,254.437 179.343,253.408 178.948 C 253.096 178.828,252.021 177.735,251.020 176.519 C 247.459 172.194,248.567 171.203,259.200 169.208 C 262.830 168.527,268.410 167.448,271.600 166.809 C 274.790 166.171,279.290 165.279,281.600 164.827 C 305.245 160.202,304.598 160.521,301.153 155.162 C 291.712 140.476,274.216 126.369,258.200 120.528 C 246.501 116.262,229.017 113.827,219.000 115.069 M303.469 164.700 C 302.826 165.982,300.621 175.641,299.977 180.000 C 299.733 181.650,299.019 185.070,298.391 187.600 C 297.762 190.130,296.798 194.630,296.249 197.600 C 292.443 218.195,292.248 218.458,285.534 212.062 C 283.260 209.896,280.988 207.906,280.485 207.640 C 278.574 206.629,280.825 204.617,249.474 235.368 C 230.759 253.725,230.011 254.400,228.382 254.400 C 226.763 254.400,225.300 253.129,210.040 238.464 C 202.252 230.980,195.454 224.750,194.933 224.619 C 193.375 224.228,192.493 224.958,180.921 236.203 C 174.810 242.141,167.378 249.340,164.405 252.200 C 158.368 258.008,157.200 259.371,157.200 260.605 C 157.200 265.456,172.953 278.710,187.105 285.766 C 197.428 290.912,213.935 294.806,225.390 294.796 C 289.698 294.740,333.378 230.514,309.542 171.060 C 306.694 163.956,304.824 161.998,303.469 164.700 " stroke="none" fill="#f78c33" fill-rule="evenodd"/>
  </g>
</svg>