<?xml version="1.0" encoding="utf-8"?>
<svg viewBox="445.5311 155.027 45.5 48" xmlns="http://www.w3.org/2000/svg">
  <linearGradient id="SVGID_1_" gradientUnits="userSpaceOnUse" x1="127.5674" y1="-144.8317" x2="145.8324" y2="-164.3534" gradientTransform="matrix(1 0 0 -1 -106 -146.3902)">
    <stop offset="0.0939" style="stop-color:#58D09E"/>
    <stop offset="0.9883" style="stop-color:#58D09E;stop-opacity:0"/>
  </linearGradient>
  <linearGradient id="SVGID_2_" gradientUnits="userSpaceOnUse" x1="105.7449" y1="-181.3066" x2="140.6394" y2="-190.5943" gradientTransform="matrix(1 0 0 -1 -106 -146.3902)">
    <stop offset="0.0774" style="stop-color:#58D09E"/>
    <stop offset="0.7617" style="stop-color:#1B1E2E"/>
  </linearGradient>
  <path class="st0" d="M0.9,30.4C0.3,28.3,0,26.2,0,24C0,14.2,6.2,5.2,15.4,1.6l1.2,3.1C8.7,7.8,3.3,15.5,3.3,24 c0,1.9,0.2,3.7,0.7,5.5L0.9,30.4z" style="fill: rgb(105, 211, 167);" transform="matrix(1, 0, 0, 1, 445.5310974121094, 155.0270233154297)"/>
  <path class="st1" d="M42.5,14.5C38.9,7.6,31.8,3.3,24.1,3.3c-2.7,0-5.4,0.5-7.9,1.6l-1.3-3.1c2.9-1.2,6-1.8,9.2-1.8 c9,0,17.2,5,21.4,12.9L42.5,14.5z" style="fill: url('#SVGID_1_');" transform="matrix(1, 0, 0, 1, 445.5310974121094, 155.0270233154297)"/>
  <path class="st2" d="M16.9,19c1.9,0,3.5,1,4.3,2.8l0.1,0.1l3.3-1.1l-0.1-0.2c-1.3-3.1-4.2-5-7.6-5c-2.4,0-4.4,0.8-6,2.4 c-1.6,1.6-2.4,3.6-2.4,5.9c0,2.3,0.8,4.3,2.4,5.9c1.6,1.6,3.6,2.4,6,2.4c3.4,0,6.3-1.9,7.6-5l0.1-0.2l-3.3-1.1l-0.1,0.1 c-0.7,1.8-2.3,2.8-4.3,2.8c-1.4,0-2.5-0.5-3.4-1.4c-0.9-0.9-1.4-2.1-1.4-3.5c0-1.4,0.5-2.6,1.4-3.6C14.4,19.5,15.5,19,16.9,19z" style="fill: rgb(27, 30, 46);" transform="matrix(1, 0, 0, 1, 445.5310974121094, 155.0270233154297)"/>
  <path class="st2" d="M37.3,16.1l-4.6,11.8L28,16.1h-3.8l6.6,16.1L26,43.4l3.3,0.7l11.5-28H37.3z" style="fill: rgb(27, 30, 46);" transform="matrix(1, 0, 0, 1, 445.5310974121094, 155.0270233154297)"/>
  <path class="st3" d="M26.6,42l-0.8,2c-0.2,0.4-0.5,0.7-0.9,0.7c-0.3,0-0.6,0-0.8,0c-9.6,0-18.1-6.8-20.2-16.1l-3.3,0.7 c1.2,5.2,4.1,10,8.3,13.4C13.2,46.1,18.5,48,24,48c0,0,0,0,0,0c0.3,0,0.6,0,1,0c1.7-0.1,3.3-1.1,3.9-2.7l1.1-2.6L26.6,42z" style="fill: url('#SVGID_2_');" transform="matrix(1, 0, 0, 1, 445.5310974121094, 155.0270233154297)"/>
</svg>