<?xml version="1.0" encoding="utf-8"?>
<svg viewBox="0 0 400 431.3364055299539" xmlns="http://www.w3.org/2000/svg">
  <g id="svgg">
    <path id="path0" d="M202.800 24.630 C 200.050 24.928,197.387 25.358,196.881 25.586 C 196.376 25.814,195.605 26.000,195.169 26.000 C 190.709 26.000,176.472 33.247,170.200 38.710 C 164.315 43.836,101.676 106.910,99.278 110.124 C 94.733 116.216,91.141 123.217,89.592 129.000 C 85.834 143.034,85.971 154.719,90.023 165.886 C 90.485 167.159,91.006 168.662,91.182 169.227 C 91.358 169.792,91.682 170.602,91.901 171.027 C 92.120 171.452,92.650 172.520,93.079 173.400 C 96.804 181.051,99.405 184.303,112.036 197.100 C 117.736 202.876,122.400 207.906,122.400 208.279 C 122.400 208.652,117.391 214.007,111.270 220.179 C 96.426 235.143,93.177 239.981,89.225 253.000 C 85.270 266.030,86.250 280.051,92.105 294.200 C 96.152 303.980,96.683 304.582,135.304 343.121 C 154.277 362.053,170.340 377.975,171.000 378.503 C 172.321 379.560,176.875 382.671,178.419 383.572 C 182.016 385.670,184.128 386.800,184.454 386.800 C 184.662 386.800,185.585 387.184,186.505 387.653 C 188.418 388.630,189.192 388.883,194.314 390.215 C 203.929 392.716,212.240 392.952,221.600 390.992 C 223.030 390.693,224.650 390.367,225.200 390.268 C 226.824 389.975,233.843 387.352,236.107 386.192 C 242.873 382.724,244.378 381.739,249.400 377.489 C 253.436 374.074,314.784 312.773,317.741 309.200 C 320.644 305.693,322.400 303.357,322.400 303.000 C 322.400 302.861,322.835 302.174,323.367 301.473 C 324.850 299.521,328.069 292.863,329.190 289.430 C 333.531 276.135,333.355 261.401,328.702 248.600 C 324.940 238.252,320.336 232.048,305.423 217.234 C 300.680 212.522,296.800 208.471,296.800 208.230 C 296.800 207.990,301.049 203.565,306.241 198.397 C 316.694 187.993,320.983 182.993,324.251 177.400 C 325.217 175.747,328.000 169.971,328.000 169.619 C 328.000 169.418,328.435 168.206,328.967 166.926 C 332.461 158.516,333.337 142.863,330.865 133.000 C 328.414 123.222,324.910 116.165,318.635 108.366 C 314.312 102.992,251.431 40.303,247.000 36.949 C 239.901 31.575,230.672 27.186,223.600 25.821 C 213.427 23.856,211.156 23.726,202.800 24.630 M216.000 60.563 C 222.920 62.261,222.858 62.207,257.440 96.668 C 289.873 128.988,291.710 130.896,293.645 134.278 C 294.858 136.399,295.161 137.202,296.225 141.120 C 297.251 144.900,296.829 153.098,295.533 154.580 C 295.350 154.789,295.199 155.239,295.198 155.580 C 295.196 156.439,293.162 160.443,291.794 162.279 C 289.517 165.335,272.085 182.400,271.240 182.400 C 270.704 182.400,267.653 179.652,262.508 174.534 C 245.918 158.032,240.213 153.878,229.200 150.284 C 226.263 149.325,225.066 149.012,220.200 147.932 C 217.076 147.239,201.903 147.246,198.800 147.942 C 182.765 151.537,176.124 155.556,160.129 171.341 C 153.741 177.646,148.765 182.249,148.263 182.317 C 147.612 182.405,146.063 181.080,141.951 176.917 C 138.954 173.882,134.864 169.824,132.861 167.897 C 121.495 156.959,119.179 144.712,126.336 133.400 C 128.196 130.459,188.645 69.375,193.814 65.212 C 199.894 60.316,208.038 58.609,216.000 60.563 M213.427 182.829 C 217.212 183.513,221.009 184.995,224.375 187.101 C 226.111 188.188,245.600 207.573,245.600 208.213 C 245.600 208.841,210.609 243.762,209.812 243.930 C 208.977 244.105,173.998 209.145,174.006 208.144 C 174.013 207.383,191.208 190.001,194.200 187.731 C 199.723 183.540,207.038 181.675,213.427 182.829 M151.668 236.663 C 152.915 237.948,174.392 259.430,199.395 284.400 C 248.259 333.201,246.020 330.856,244.932 332.110 C 235.350 343.150,222.816 353.877,217.800 355.331 C 216.480 355.713,214.847 356.200,214.172 356.413 C 209.489 357.888,200.405 355.915,195.200 352.292 C 193.351 351.006,137.353 295.550,129.316 287.046 C 122.080 279.391,120.434 268.076,125.149 258.400 C 126.964 254.675,127.205 254.393,137.435 244.051 C 149.260 232.098,147.915 232.796,151.668 236.663 M281.209 243.261 C 291.866 253.945,292.604 254.810,294.334 258.653 C 298.683 268.309,297.326 278.406,290.613 286.341 C 284.820 293.187,271.731 305.698,270.853 305.228 C 269.510 304.510,235.132 270.003,235.289 269.532 C 235.604 268.587,270.643 234.002,271.286 234.001 C 271.663 234.001,276.129 238.167,281.209 243.261 " stroke="none" fill="#07cb9a" fill-rule="evenodd"/>
  </g>
</svg>