<?xml version="1.0" encoding="utf-8"?>
<svg viewBox="0 0 400 400" xmlns="http://www.w3.org/2000/svg">
  <g id="svgg"/>
  <g transform="matrix(1, 0, 0, 1, 445.5310974121094, 155.02702331542972)">
  
    <path id="path0_fill" class="st0" d="M -318.81 244.199 C -282.139 244.199 -252.378 214.436 -252.378 177.766 L -252.378 111.334 L -318.81 111.334 C -355.481 111.334 -385.243 141.095 -385.243 177.766 C -385.243 214.436 -355.481 244.199 -318.81 244.199 Z" style="fill: rgb(10, 207, 131);"/>
    <path id="path1_fill" class="st1" d="M -385.243 44.901 C -385.243 8.231 -355.481 -21.532 -318.81 -21.532 L -252.378 -21.532 L -252.378 111.334 L -318.81 111.334 C -355.481 111.334 -385.243 81.572 -385.243 44.901 Z" style="fill: rgb(162, 89, 255);"/>
    <path id="path1_fill_1_" class="st2" d="M -385.243 -87.963 C -385.243 -124.634 -355.481 -154.396 -318.81 -154.396 L -252.378 -154.396 L -252.378 -21.532 L -318.81 -21.532 C -355.481 -21.532 -385.243 -51.292 -385.243 -87.963 Z" style="fill: rgb(242, 78, 30);"/>
    <path id="path2_fill" class="st3" d="M -252.378 -154.396 L -185.946 -154.396 C -149.275 -154.396 -119.513 -124.634 -119.513 -87.963 C -119.513 -51.292 -149.275 -21.532 -185.946 -21.532 L -252.378 -21.532 L -252.378 -154.396 Z" style="fill: rgb(255, 114, 98);"/>
    <path id="path3_fill" class="st4" d="M -119.513 44.901 C -119.513 81.572 -149.275 111.334 -185.946 111.334 C -222.616 111.334 -252.378 81.572 -252.378 44.901 C -252.378 8.231 -222.616 -21.532 -185.946 -21.532 C -149.275 -21.532 -119.513 8.231 -119.513 44.901 Z" style="fill: rgb(26, 188, 254);"/>
  </g>
</svg>