<?xml version="1.0" encoding="utf-8"?>
<!DOCTYPE svg PUBLIC "-//W3C//DTD SVG 1.1//EN" "http://www.w3.org/Graphics/SVG/1.1/DTD/svg11.dtd">
<svg version="1.1" xmlns="http://www.w3.org/2000/svg" xmlns:xlink="http://www.w3.org/1999/xlink" x="0px" y="0px" viewBox="0 0 256 256" enable-background="new 0 0 256 256" xml:space="preserve">
<g> <path fill="#ebd52e" d="M10,10h236v236H10V10z M226.7,189.7c-1.7-10.8-8.7-19.8-29.5-28.3c-7.2-3.4-15.3-5.8-17.7-11.2 c-0.9-3.2-1-5-0.4-6.9c1.5-6.3,9-8.3,14.9-6.5c3.8,1.2,7.4,4.1,9.6,8.8c10.2-6.7,10.2-6.7,17.3-11.1c-2.7-4.1-4-5.9-5.8-7.7 c-6.2-6.9-14.4-10.5-27.9-10.2l-6.9,0.9c-6.7,1.6-13,5.2-16.8,9.9c-11.2,12.7-8,34.8,5.6,44c13.4,10,33,12.2,35.6,21.7 c2.4,11.5-8.6,15.2-19.3,13.9c-8-1.8-12.4-5.8-17.3-13.1l-18,10.3c2.1,4.7,4.4,6.8,8,10.9c17.1,17.3,59.9,16.4,67.6-9.9 c0.3-0.9,2.4-6.9,0.7-16.2L226.7,189.7L226.7,189.7z M138.3,118.5h-22.1c0,19-0.1,38-0.1,57.1c0,12.1,0.6,23.2-1.4,26.7 c-3.2,6.8-11.6,5.9-15.4,4.7c-3.9-1.9-5.9-4.6-8.2-8.4c-0.6-1-1.1-1.9-1.2-1.9l-17.9,11c3,6.2,7.4,11.5,13,14.9 c8.4,5,19.7,6.6,31.5,4c7.7-2.2,14.3-6.8,17.8-13.9c5-9.2,3.9-20.4,3.9-32.9c0.1-20.2,0-40.4,0-60.7V118.5L138.3,118.5z"/></g>
</svg>