<?xml version="1.0" encoding="utf-8"?>
<svg viewBox="0 0 400 400" xmlns="http://www.w3.org/2000/svg">
  <g id="svgg">
    <path id="path0" d="M172.667 24.267 C 172.052 24.881,173.116 28.230,188.762 74.946 C 215.697 155.368,213.065 147.926,214.168 146.783 C 214.478 146.462,218.505 138.460,223.117 129.000 C 261.245 50.799,259.539 54.159,260.576 55.214 C 260.893 55.536,271.053 76.230,283.154 101.200 C 295.255 126.170,305.441 146.780,305.789 147.000 C 306.746 147.604,306.359 148.659,318.557 112.200 C 349.577 19.480,347.840 24.803,347.200 24.395 C 346.517 23.959,173.101 23.832,172.667 24.267 M197.317 174.203 C 178.199 178.358,173.195 204.306,189.327 215.635 C 205.934 227.298,228.042 212.011,223.798 191.800 C 221.231 179.571,209.250 171.610,197.317 174.203 M313.404 175.003 C 297.473 180.624,292.942 201.116,304.994 213.042 C 323.113 230.972,351.523 209.142,340.149 186.030 C 335.420 176.421,323.414 171.472,313.404 175.003 M79.400 175.234 C 60.609 177.593,53.090 201.535,66.993 214.742 C 83.208 230.144,108.580 215.030,103.961 192.720 C 101.684 181.720,90.600 173.828,79.400 175.234 M250.807 208.114 C 250.260 208.391,249.646 209.153,249.440 209.809 C 242.476 232.066,223.965 246.382,202.129 246.398 C 198.345 246.400,198.491 246.304,195.515 250.750 C 176.300 279.462,147.900 302.165,116.113 314.225 C 110.312 316.426,109.947 316.423,105.567 314.161 C 80.569 301.250,67.948 277.038,71.446 248.705 C 71.710 246.567,70.423 245.497,68.591 246.331 C 67.229 246.952,57.435 268.279,53.404 279.400 C 46.295 299.016,44.891 321.164,49.663 338.400 C 57.086 365.205,84.777 381.301,114.800 376.261 C 131.829 373.403,144.867 368.243,183.200 349.193 C 211.194 335.281,219.272 331.593,232.200 326.823 C 249.403 320.475,256.327 318.934,290.000 313.962 C 300.655 312.389,311.337 309.421,318.623 306.011 C 340.216 295.905,351.721 272.827,346.802 249.485 C 344.984 240.857,344.552 240.402,340.052 242.377 C 313.677 253.953,283.046 240.120,273.806 212.459 C 272.828 209.532,272.286 208.481,271.559 208.106 C 270.195 207.403,252.198 207.410,250.807 208.114 " stroke="none" fill="#9c445c" fill-rule="evenodd"/>
  </g>
</svg>