<svg width="209" height="51" viewBox="0 0 209 51" fill="none" xmlns="http://www.w3.org/2000/svg">
<path d="M0.835227 40H5.02557V22.7415C5.02557 19.0483 7.9375 16.3494 11.9148 16.3494C13.0334 16.3494 14.1875 16.5625 14.4716 16.6335V12.3722C13.9922 12.3366 12.8913 12.3011 12.2699 12.3011C9.00284 12.3011 6.16193 14.1477 5.16761 16.8466H4.88352V12.7273H0.835227V40ZM21.6882 40.5682C29.0746 40.5682 34.0462 34.9574 34.0462 26.5057C34.0462 17.983 29.0746 12.3722 21.6882 12.3722C14.3018 12.3722 9.33026 17.983 9.33026 26.5057C9.33026 34.9574 14.3018 40.5682 21.6882 40.5682ZM21.6882 36.804C16.0774 36.804 13.5206 31.9744 13.5206 26.5057C13.5206 21.0369 16.0774 16.1364 21.6882 16.1364C27.299 16.1364 29.8558 21.0369 29.8558 26.5057C29.8558 31.9744 27.299 36.804 21.6882 36.804ZM43.4512 50.7955C49.9853 50.7955 55.2409 47.8125 55.2409 40.7812V12.7273H51.1926V17.0597H50.7665C49.8432 15.6392 48.1387 12.3722 42.812 12.3722C35.9228 12.3722 31.1642 17.8409 31.1642 26.2216C31.1642 34.7443 36.1358 39.5739 42.7409 39.5739C48.0676 39.5739 49.7722 36.4489 50.6955 34.9574H51.0506V40.4972C51.0506 45.0426 47.8546 47.1023 43.4512 47.1023C38.4973 47.1023 36.7573 44.4922 35.6387 42.983L32.3006 45.3267C34.0051 48.1854 37.361 50.7955 43.4512 50.7955ZM43.3091 35.8097C38.0534 35.8097 35.3546 31.8324 35.3546 26.1506C35.3546 20.6108 37.9824 16.1364 43.3091 16.1364C48.4228 16.1364 51.1216 20.2557 51.1216 26.1506C51.1216 32.1875 48.3517 35.8097 43.3091 35.8097ZM66.3461 40.5682C71.8858 40.5682 75.9341 37.7983 77.2125 33.679L73.1642 32.5426C72.0989 35.3835 69.6309 36.804 66.3461 36.804C61.4277 36.804 58.0364 33.6257 57.8411 27.7841H77.6387V26.0085C77.6387 15.8523 71.6017 12.3722 65.9199 12.3722C58.5336 12.3722 53.633 18.196 53.633 26.5767C53.633 34.9574 58.4625 40.5682 66.3461 40.5682ZM57.8411 24.1619C58.1252 19.9183 61.1259 16.1364 65.9199 16.1364C70.4654 16.1364 73.3773 19.5455 73.3773 24.1619H57.8411ZM63.7892 9.03409H67.4824L73.0222 0.795453H68.1216L63.7892 9.03409ZM76.013 40H80.2033V22.7415C80.2033 19.0483 83.1152 16.3494 87.0925 16.3494C88.2111 16.3494 89.3652 16.5625 89.6493 16.6335V12.3722C89.1699 12.3366 88.0691 12.3011 87.4476 12.3011C84.1806 12.3011 81.3397 14.1477 80.3453 16.8466H80.0613V12.7273H76.013V40ZM86.6165 40H90.8068V12.7273H86.6165V40ZM88.7472 8.18182C90.3807 8.18182 91.7301 6.90341 91.7301 5.34091C91.7301 3.77841 90.3807 2.5 88.7472 2.5C87.1136 2.5 85.7642 3.77841 85.7642 5.34091C85.7642 6.90341 87.1136 8.18182 88.7472 8.18182ZM101.561 40.5682C108.948 40.5682 113.919 34.9574 113.919 26.5057C113.919 17.983 108.948 12.3722 101.561 12.3722C94.1749 12.3722 89.2033 17.983 89.2033 26.5057C89.2033 34.9574 94.1749 40.5682 101.561 40.5682ZM101.561 36.804C95.9505 36.804 93.3936 31.9744 93.3936 26.5057C93.3936 21.0369 95.9505 16.1364 101.561 16.1364C107.172 16.1364 109.729 21.0369 109.729 26.5057C109.729 31.9744 107.172 36.804 101.561 36.804ZM112.884 40H116.932V35.8097H117.429C118.353 37.3011 120.128 40.5682 125.384 40.5682C132.202 40.5682 136.961 35.0994 136.961 26.4347C136.961 17.8409 132.202 12.3722 125.313 12.3722C119.986 12.3722 118.353 15.6392 117.429 17.0597H117.074V3.63636H112.884V40ZM117.003 26.3636C117.003 20.2557 119.702 16.1364 124.816 16.1364C130.142 16.1364 132.77 20.6108 132.77 26.3636C132.77 32.1875 130.071 36.804 124.816 36.804C119.773 36.804 117.003 32.5426 117.003 26.3636ZM143.396 40.6392C148.154 40.6392 150.64 38.0824 151.493 36.3068H151.706V40H155.896V22.0312C155.896 13.3665 149.291 12.3722 145.811 12.3722C141.691 12.3722 137.004 13.7926 134.873 18.7642L138.85 20.1847C139.774 18.196 141.958 16.0653 145.953 16.0653C149.806 16.0653 151.706 18.1072 151.706 21.6051V21.7472C151.706 23.7713 149.646 23.5938 144.674 24.233C139.614 24.8899 134.092 26.0085 134.092 32.2585C134.092 37.5852 138.211 40.6392 143.396 40.6392ZM144.035 36.875C140.697 36.875 138.282 35.3835 138.282 32.4716C138.282 29.2756 141.194 28.2812 144.461 27.8551C146.237 27.642 150.995 27.1449 151.706 26.2926V30.1278C151.706 33.5369 149.007 36.875 144.035 36.875ZM157.267 50.2273C161.048 50.2273 163.712 48.2209 165.292 43.9773L176.904 12.7983L172.323 12.7273L164.795 34.4602H164.511L156.982 12.7273H152.437L162.522 40.142L161.741 42.2727C160.214 46.4276 158.332 46.8182 155.278 46.0369L154.213 49.7301C154.639 49.9432 155.846 50.2273 157.267 50.2273ZM184.907 40.5682C190.446 40.5682 194.495 37.7983 195.773 33.679L191.725 32.5426C190.659 35.3835 188.191 36.804 184.907 36.804C179.988 36.804 176.597 33.6257 176.402 27.7841H196.199V26.0085C196.199 15.8523 190.162 12.3722 184.48 12.3722C177.094 12.3722 172.194 18.196 172.194 26.5767C172.194 34.9574 177.023 40.5682 184.907 40.5682ZM176.402 24.1619C176.686 19.9183 179.686 16.1364 184.48 16.1364C189.026 16.1364 191.938 19.5455 191.938 24.1619H176.402ZM194.574 40H198.764V22.7415C198.764 19.0483 201.676 16.3494 205.653 16.3494C206.772 16.3494 207.926 16.5625 208.21 16.6335V12.3722C207.73 12.3366 206.63 12.3011 206.008 12.3011C202.741 12.3011 199.9 14.1477 198.906 16.8466H198.622V12.7273H194.574V40Z" fill="url(#paint0_linear_23_89)"/>
<defs>
<linearGradient id="paint0_linear_23_89" x1="157" y1="24" x2="70" y2="24" gradientUnits="userSpaceOnUse">
<stop stop-color="#C168C1"/>
<stop offset="1" stop-color="#3EC4CD"/>
</linearGradient>
</defs>
</svg>
