<svg version="1.1" id="Layer_1" xmlns="http://www.w3.org/2000/svg" xmlns:xlink="http://www.w3.org/1999/xlink" x="0px" y="0px"
	 width="100%" viewBox="0 0 200 200" enable-background="new 0 0 200 200" xml:space="preserve">
<path fill="#092667" opacity="1.000000" stroke="none" 
	d="
M1.000002,162.000000 
	C1.000000,121.645775 1.000000,81.291542 1.364370,40.451927 
	C2.043022,39.399006 2.477472,38.866405 2.654120,38.258854 
	C7.903387,20.204750 19.574900,8.498466 37.460232,2.853006 
	C38.407417,2.554029 39.157928,1.631985 40.000000,1.000000 
	C79.687561,1.000000 119.375122,1.000000 159.641724,1.355017 
	C180.620346,6.577752 193.907684,18.913685 199.663864,39.201698 
	C199.854446,39.873428 200.543365,40.403759 201.000000,41.000000 
	C201.000000,81.020897 201.000000,121.041786 200.634644,161.543915 
	C199.911163,162.748245 199.440491,163.437531 199.211411,164.199448 
	C193.641846,182.723206 181.389999,194.365585 162.878723,199.617584 
	C161.869629,199.903885 160.957352,200.531342 160.000000,201.000000 
	C120.312439,201.000000 80.624878,201.000000 40.451275,200.634460 
	C39.410721,199.950760 38.893040,199.503784 38.296341,199.333160 
	C20.362230,194.204941 8.738452,182.624603 2.967971,164.975571 
	C2.611645,163.885727 1.669557,162.987427 1.000002,162.000000 
M169.503586,138.131531 
	C169.696930,134.503494 170.014679,130.874481 169.986343,127.248184 
	C169.980133,126.452713 168.858292,125.172234 168.046875,124.981880 
	C166.467056,124.611252 164.743332,124.844757 163.079208,124.844238 
	C153.153717,124.841164 143.228226,124.842712 132.977325,124.842712 
	C132.977325,122.392708 132.977386,120.585472 132.977310,118.778236 
	C132.976639,99.635521 132.859726,80.491570 133.064133,61.351048 
	C133.110229,57.035515 131.571411,55.588902 127.537636,56.148624 
	C123.702003,56.680862 119.858833,57.158649 115.832909,57.684692 
	C115.832909,84.009850 115.821968,110.136925 115.881104,136.263855 
	C115.883057,137.126175 116.596657,137.986893 117.597939,139.415436 
	C118.228821,139.597733 118.859291,139.937637 119.490646,139.939301 
	C134.793411,139.979584 150.096405,140.011551 165.398880,139.941284 
	C166.608841,139.935730 167.815308,139.175323 169.503586,138.131531 
M32.115967,135.751251 
	C32.767696,136.669296 33.383839,138.350662 34.076866,138.382980 
	C39.004902,138.612747 43.948650,138.505402 49.344215,138.505402 
	C49.344215,128.089706 49.344215,118.335312 49.344215,108.156693 
	C53.438843,108.156693 57.078068,108.332619 60.691101,108.100632 
	C63.545746,107.917351 65.113022,108.851990 66.377129,111.522194 
	C70.148895,119.489372 74.191605,127.331207 78.279854,135.142792 
	C78.971901,136.465134 80.360161,138.285065 81.518494,138.354965 
	C87.090385,138.691193 92.693726,138.506165 99.035545,138.506165 
	C93.058670,127.221252 87.502975,116.731567 82.049988,106.435799 
	C85.277550,103.948624 88.504883,102.075798 90.943230,99.465858 
	C97.865547,92.056389 99.001778,83.120567 95.859329,73.856201 
	C92.583504,64.198639 84.873306,58.907909 75.180992,58.160721 
	C61.602947,57.113983 47.920391,57.396111 34.281048,57.241867 
	C33.503380,57.233074 32.712242,58.415478 31.341370,59.158897 
	C31.020582,59.672787 30.411089,60.193619 30.423252,60.699501 
	C30.558750,66.334419 31.018282,71.969627 30.953878,77.599762 
	C30.748619,95.542702 30.321730,113.483124 30.122919,131.426102 
	C30.109934,132.597992 31.297024,133.783188 32.115967,135.751251 
z"/>
<path fill="#F8FAFC" opacity="1.000000" stroke="none" 
	d="
M201.000000,40.531342 
	C200.543365,40.403759 199.854446,39.873428 199.663864,39.201698 
	C193.907684,18.913685 180.620346,6.577752 160.110382,1.355017 
	C173.592422,1.000000 187.184845,1.000000 201.000000,1.000000 
	C201.000000,14.020048 201.000000,27.041367 201.000000,40.531342 
z"/>
<path fill="#F9FAFC" opacity="1.000000" stroke="none" 
	d="
M160.468658,201.000000 
	C160.957352,200.531342 161.869629,199.903885 162.878723,199.617584 
	C181.389999,194.365585 193.641846,182.723206 199.211411,164.199448 
	C199.440491,163.437531 199.911163,162.748245 200.634644,162.012573 
	C201.000000,174.928482 201.000000,187.856979 201.000000,201.000000 
	C187.646530,201.000000 174.291931,201.000000 160.468658,201.000000 
z"/>
<path fill="#F8FAFB" opacity="1.000000" stroke="none" 
	d="
M39.531342,1.000000 
	C39.157928,1.631985 38.407417,2.554029 37.460232,2.853006 
	C19.574900,8.498466 7.903387,20.204750 2.654120,38.258854 
	C2.477472,38.866405 2.043022,39.399006 1.364370,39.983269 
	C1.000000,27.073353 1.000000,14.146708 1.000000,1.000000 
	C13.686713,1.000000 26.374699,1.000000 39.531342,1.000000 
z"/>
<path fill="#F8FAFC" opacity="1.000000" stroke="none" 
	d="
M1.000002,162.468658 
	C1.669557,162.987427 2.611645,163.885727 2.967971,164.975571 
	C8.738452,182.624603 20.362230,194.204941 38.296341,199.333160 
	C38.893040,199.503784 39.410721,199.950760 39.982616,200.634460 
	C27.073357,201.000000 14.146712,201.000000 1.000000,201.000000 
	C1.000000,188.313293 1.000000,175.625305 1.000002,162.468658 
z"/>
<path fill="#F7F9FB" opacity="1.000000" stroke="none" 
	d="
M31.927376,59.043491 
	C32.712242,58.415478 33.503380,57.233074 34.281048,57.241867 
	C47.920391,57.396111 61.602947,57.113983 75.180992,58.160721 
	C84.873306,58.907909 92.583504,64.198639 95.859329,73.856201 
	C99.001778,83.120567 97.865547,92.056389 90.943230,99.465858 
	C88.504883,102.075798 85.277550,103.948624 82.049988,106.435799 
	C87.502975,116.731567 93.058670,127.221252 99.035545,138.506165 
	C92.693726,138.506165 87.090385,138.691193 81.518494,138.354965 
	C80.360161,138.285065 78.971901,136.465134 78.279854,135.142792 
	C74.191605,127.331207 70.148895,119.489372 66.377129,111.522194 
	C65.113022,108.851990 63.545746,107.917351 60.691101,108.100632 
	C57.078068,108.332619 53.438843,108.156693 49.344215,108.156693 
	C49.344215,118.335312 49.344215,128.089706 49.344215,138.505402 
	C43.948650,138.505402 39.004902,138.612747 34.076866,138.382980 
	C33.383839,138.350662 32.767696,136.669296 32.112316,134.900177 
	C32.048237,109.047234 31.987806,84.045364 31.927376,59.043491 
M67.887230,70.091797 
	C61.797501,70.091797 55.707771,70.091797 49.524094,70.091797 
	C49.524094,78.916046 49.524094,87.304688 49.524094,95.776817 
	C50.473007,95.906738 51.114628,96.068741 51.756721,96.070625 
	C56.414997,96.084305 61.079441,96.214592 65.730377,96.024796 
	C74.160316,95.680786 78.895386,91.691147 79.635742,84.591438 
	C80.375420,77.498215 76.674988,72.624146 67.887230,70.091797 
z"/>
<path fill="#F8F9FB" opacity="1.000000" stroke="none" 
	d="
M116.978531,138.848358 
	C116.596657,137.986893 115.883057,137.126175 115.881104,136.263855 
	C115.821968,110.136925 115.832909,84.009850 115.832909,57.684692 
	C119.858833,57.158649 123.702003,56.680862 127.537636,56.148624 
	C131.571411,55.588902 133.110229,57.035515 133.064133,61.351048 
	C132.859726,80.491570 132.976639,99.635521 132.977310,118.778236 
	C132.977386,120.585472 132.977325,122.392708 132.977325,124.842712 
	C143.228226,124.842712 153.153717,124.841164 163.079208,124.844238 
	C164.743332,124.844757 166.467056,124.611252 168.046875,124.981880 
	C168.858292,125.172234 169.980133,126.452713 169.986343,127.248184 
	C170.014679,130.874481 169.696930,134.503494 168.801666,138.359467 
	C151.059341,138.674377 134.018936,138.761368 116.978531,138.848358 
z"/>
<path fill="#0E2556" opacity="1.000000" stroke="none" 
	d="
M31.634373,59.101196 
	C31.987806,84.045364 32.048237,109.047234 32.017281,134.505646 
	C31.297024,133.783188 30.109934,132.597992 30.122919,131.426102 
	C30.321730,113.483124 30.748619,95.542702 30.953878,77.599762 
	C31.018282,71.969627 30.558750,66.334419 30.423252,60.699501 
	C30.411089,60.193619 31.020582,59.672787 31.634373,59.101196 
z"/>
<path fill="#0E235A" opacity="1.000000" stroke="none" 
	d="
M117.288239,139.131897 
	C134.018936,138.761368 151.059341,138.674377 168.561584,138.676575 
	C167.815308,139.175323 166.608841,139.935730 165.398880,139.941284 
	C150.096405,140.011551 134.793411,139.979584 119.490646,139.939301 
	C118.859291,139.937637 118.228821,139.597733 117.288239,139.131897 
z"/>
<path fill="#102B69" opacity="1.000000" stroke="none" 
	d="
M68.312973,70.165054 
	C76.674988,72.624146 80.375420,77.498215 79.635742,84.591438 
	C78.895386,91.691147 74.160316,95.680786 65.730377,96.024796 
	C61.079441,96.214592 56.414997,96.084305 51.756721,96.070625 
	C51.114628,96.068741 50.473007,95.906738 49.524094,95.776817 
	C49.524094,87.304688 49.524094,78.916046 49.524094,70.091797 
	C55.707771,70.091797 61.797501,70.091797 68.312973,70.165054 
z"/>
</svg>