<?xml version="1.0" encoding="UTF-8"?>
<svg xmlns="http://www.w3.org/2000/svg" viewBox="0 0 200 200" width="100%">
  <!-- Letter R -->
  <path fill="#111827" d="
    M31.927,59.043
    C32.712,58.415 33.503,57.233 34.281,57.242
    C47.92,57.396 61.603,57.114 75.181,58.161
    C84.873,58.908 92.584,64.199 95.859,73.856
    C99.002,83.121 97.866,92.056 90.943,99.466
    C88.505,102.076 85.278,103.949 82.05,106.436
    C87.503,116.732 93.059,127.221 99.036,138.506
    C92.694,138.506 87.09,138.691 81.518,138.355
    C80.36,138.285 78.972,136.465 78.28,135.143
    C74.192,127.331 70.149,119.489 66.377,111.522
    C65.113,108.852 63.546,107.917 60.691,108.101
    C57.078,108.333 53.439,108.157 49.344,108.157
    C49.344,118.335 49.344,128.09 49.344,138.505
    C43.949,138.505 39.005,138.613 34.077,138.383
    C33.384,138.351 32.768,136.669 32.112,134.9
    C32.048,109.047 31.988,84.045 31.927,59.043
    Z
    M67.887,70.092
    C61.798,70.092 55.708,70.092 49.524,70.092
    C49.524,78.916 49.524,87.305 49.524,95.777
    C50.473,95.907 51.115,96.069 51.757,96.071
    C56.415,96.084 61.079,96.215 65.73,96.025
    C74.16,95.681 78.895,91.691 79.636,84.591
    C80.375,77.498 76.675,72.624 67.887,70.092
    Z"/>
  <!-- Letter L -->
  <path fill="#111827" d="
    M116.979,138.848
    C116.597,137.987 115.883,137.126 115.881,136.264
    C115.822,110.137 115.833,84.01 115.833,57.685
    C119.859,57.159 123.702,56.681 127.538,56.149
    C131.571,55.589 133.11,57.036 133.064,61.351
    C132.86,80.492 132.977,99.636 132.977,118.778
    C132.977,120.585 132.977,122.393 132.977,124.843
    C143.228,124.843 153.154,124.841 163.079,124.844
    C164.743,124.845 166.467,124.611 168.047,124.982
    C168.858,125.172 169.98,126.453 169.986,127.248
    C170.015,130.874 169.697,134.503 168.802,138.359
    C151.059,138.674 134.019,138.761 116.979,138.848
    Z"/>
</svg>
